<?xml version="1.0" encoding="utf-8"?>
<!-- Generator: Adobe Illustrator 26.4.1, SVG Export Plug-In . SVG Version: 6.00 Build 0)  -->
<svg viewBox="0 0 2000 2000">
<g>
	<path fill="#5F5F60" d="M1204.1,1480.5c2.2,5.3,2.5,11.2,1,16.8l-5.9,21.9c-1.8,6.6-6.6,12-12.9,14.6l-11,4.5
		c0,0-17.2,3.4-17.2,16.4c0,0-30.9,10.9-28.6,27.3c0,0,31.7-24.9,33.6-18.7l25.1-10.6c21.3-9,44.6-11.9,67.4-8.4
		c6.6,1,12.1,1.8,14.3,1.9c7.7,12.6,28.9,43.8,53.8,46.8l40.9,38.6l-14.1-33.2c0,0,7.5-25.2-24-30.9c0,0-21.4-12-27.5-18.2
		c24.7,3.7,54.4,10.8,77.7,24.4c0,0,27.6,22.4,34.5,10.7c0,0,39.7,18.3,51.2,28.9c0,0-24.2-36-48.6-45.3c0,0,6.1-12.6-47.7-25.1
		c0,0-4.8-3.1-12.3-7c14.4-2.7,26.3-6.1,29.5-10.4c0,0,21.1,4.4,22.4-6c0,0,22.1-1.3,36.1,19c0,0,8.1-28.1-44.9-41.9
		c0,0-28.8-20-38.5,10.1c0,0-37.8,12.2-57.3,12.2c-0.5,0-1,0-1.5,0c-2.6-0.1-4.8-0.4-6.5-1.1c-13.8-5.5-35.8-30.2-47-43.5
		c-7.6-9.1-73.9-101.6-115.1-159.4c-4.9-6.9-9.5-13.3-13.5-19c-11.5,1.8-22.9,3.3-34.1,4.5
		C1126.3,1354.4,1184.2,1431.7,1204.1,1480.5z"/>
	<path fill="#5F5F60" d="M938.7,1515.3c-0.2,6.1-2.4,12-6.3,16.8l-10.4,12.7c-6.6,8.1-16.6,12.7-27,12.3l-6.2-0.2c0,0-17-3.9-22.3,8
		c0,0-32.7-2.6-37.2,13.3c0,0,39.1-9.9,38.3-3.4l27.3,0.5c23.1,0.4,45.6,7.2,65,19.7c5.6,3.6,10.3,6.6,12.3,7.6
		c1.9,14.6,8.6,51.8,30.1,64.7l21.7,51.9l0.6-36.1c0,0,17.1-20-9.4-38c0,0-14.7-19.7-17.8-27.8c21.1,13.4,45.3,32,61.1,53.9
		c0,0,16.1,31.6,27.2,23.8c0,0,28.8,32.8,35,47.2c0,0-7.5-42.7-26-61.2c0,0,10.7-9.1-33.4-42.3c0,0-3.1-4.8-8.4-11.4
		c14.2,3.4,26.5,5.1,31.2,2.5c0,0,17.4,12.6,22.8,3.7c0,0,20.7,7.8,25.3,32.1c0,0,18.8-22.4-24-56.6c0,0-18.2-30-39.3-6.4
		c0,0-39.5-4.3-57.3-12.2c-0.4-0.2-0.9-0.4-1.3-0.6c-2.3-1.1-4.2-2.4-5.5-3.6c-10.3-10.6-20.5-42.2-25.3-58.8
		c-3.3-11.4-26.1-122.9-40.3-192.5c-2.3-11-4.3-21-6-29.3c-11-0.5-21.4-1.1-31.3-1.8C919.2,1370.1,940.2,1462.8,938.7,1515.3z"/>
	<path fill="#747575" d="M1837.6,435.9c-53.9-8.7-98.9-9.3-103-9.3l0,0c-34.9,27.2-40.8,44.5-41.7,48.7c0,0,0,0,0,0
		c66.2-20.8,156.1-15.5,201.7-10.9c0.9-0.9,1.7-1.7,2.4-2.6C1897,461.8,1894.2,445.1,1837.6,435.9z"/>
	<path fill="#747575" d="M1692.7,476.3c0.5,0.1,1,0.2,1.4,0.2c0,0,0,0,0,0c-0.6-0.3-1-0.5-1.4-0.7c0,0,0,0,0,0
		C1692.7,476.2,1692.7,476.3,1692.7,476.3z"/>
	<path fill="#ED8026" d="M1694.1,476.5C1694.1,476.5,1694.1,476.5,1694.1,476.5c-0.5-0.1-0.9-0.2-1.4-0.2c0,0,0-0.2,0.1-0.5
		c0,0,0,0,0,0c-0.4-0.2-0.6-0.3-0.6-0.3c0.2-0.1,0.4-0.1,0.7-0.2c0,0,0,0,0,0c1-4.2,6.9-21.6,41.7-48.7c-0.2,0-0.3,0-0.3,0
		l-5.4-13.9c0,0-7.5-21.1-29.5-48.6c0,0,0,0,0,0c-71.5-21.3-191.9-45.6-251.7,9.2c-33.1,30.4-60.2,62.2-80.3,92.8
		c-33.4,50.9-47.6,98.4-38.4,130.6c0.2,0.6,0.3,1.2,0.5,1.8c12,51.8-82.7,143.9-117.2,189.9c-34.9,46.6-293.8,276-11.2,335.1
		c185.7,38.8,266.2,11.7,299.7-11.5c0,0,0,0,0,0c16.3-11.3,51-38.3,53.3-40.1c0,0,0.1,0,0.1-0.1c0,0,0,0,0,0l0.1-0.1
		c52.5-35.8,151.1-137.3,138.2-390.6c0,0,0,0,0-0.1c-0.1-1-2.4-15.9-2.6-37.9c-0.2-14,0.4-30.8,2.9-48.6c2.2-16.2,6-33.4,12-50
		c6.7-18.5,16.2-36.4,29.6-51.9l0,0c-0.1,0.1-0.2,0.1-0.2,0.1C1713.7,486.2,1699.2,479.1,1694.1,476.5z M1548.2,440.7
		c-5.4,23.1-31,36.8-57.2,30.7c-26.2-6.1-43.1-29.8-37.8-52.8c5.4-23.1,31-36.8,57.2-30.7C1536.6,393.9,1553.5,417.6,1548.2,440.7z"
		/>
	<path d="M1510.4,387.8c-26.2-6.1-51.8,7.7-57.2,30.7c-5.4,23.1,11.5,46.7,37.8,52.8c26.2,6.1,51.8-7.7,57.2-30.7
		C1553.5,417.6,1536.6,393.9,1510.4,387.8z M1538.6,421.8c-0.8,3.5-4,4.4-7.5,3.6c-3.5-0.8-6-3-5.2-6.5c0.8-3.5,4-4.4,7.5-3.6
		S1539.4,418.3,1538.6,421.8z"/>
	<path fill="#5F5F60" d="M584.3,1150.2c68.5-42.3,307.4-193.3,534.5-378.6c15-12.2,92.3-98.4,92.8-127.2c0.5-11.8,8.6-29.7-13.7-37
		c-134.9-44.2-288,57.3-361.4,115.4c-26.5,21-42.6,36.3-43.7,37.1c0,0,0,0,0,0c-0.4,0.4-0.9,0.8-1.4,1.2
		c-24,20.8-87.7,89.3-156.2,167.5c-81.9,93.5-170.6,201.1-206.4,258c-0.2,0.4-0.5,0.7-0.7,1.1c-4.3,6.9-7.8,13-10.4,18.2
		c0,0,0,0,0,0.1c-5.3,10.6-6.8,17.6-3.8,20c13.8,10.9,38.8,5.1,69.9-10.8c21.2-10.8,45.1-26.4,70.2-44.6
		c-59.3,90.2-372.2,453.2-419.8,494.8c0,0-59.3,75.2-13.7,85.8c0.4,0.1,0.8,0.2,1.2,0.3c0.3,0.1,0.6,0.1,0.9,0.2
		c0.3,0.1,0.6,0.1,0.8,0.1c0.3,0.1,0.6,0.1,0.9,0.1c0.4,0.1,0.8,0.1,1.3,0.2c0.4,0,0.7,0.1,1.1,0.1c0.4,0,0.8,0.1,1.1,0.1
		c0.2,0,0.5,0,0.7,0.1c0.5,0,1,0.1,1.5,0.1c0.4,0,0.9,0,1.3,0c2.2,0,4.5,0,7.1-0.2c0.6,0,1.2-0.1,1.8-0.1c3.7-0.3,7.8-0.8,12.3-1.6
		c0.8-0.1,1.5-0.3,2.3-0.4c0.8-0.1,1.5-0.3,2.3-0.4c2.3-0.5,4.8-1,7.3-1.6c0.8-0.2,1.7-0.4,2.6-0.6c0.9-0.2,1.7-0.4,2.6-0.7
		c0.9-0.2,1.8-0.5,2.7-0.7c1.8-0.5,3.7-1,5.6-1.5c0.8-0.2,1.6-0.5,2.5-0.7c3.1-0.9,6.2-1.9,9.5-2.9c2.1-0.7,4.2-1.4,6.4-2.1
		c1.1-0.4,2.2-0.7,3.3-1.1c5.8-2,11.9-4.2,18.4-6.7c1-0.4,1.9-0.7,2.9-1.1c1.3-0.5,2.5-1,3.8-1.5c1.3-0.5,2.6-1,3.9-1.5
		c2.1-0.8,4.1-1.7,6.3-2.5c0.6-0.2,1.2-0.5,1.8-0.7c3.7-1.5,7.5-3.1,11.4-4.7c2.3-0.9,4.5-1.9,6.9-2.9c0.4-0.2,0.8-0.4,1.2-0.5
		c42.7-18.7,80.3-47.4,109.7-83.6c0.1-0.1,0.1-0.2,0.2-0.3l50.7-62.6l155.9-192.6l9.7-11.1l94.8-109.5c0,0-0.2-0.2-0.5-0.5
		c-12.6-5.3-24.5-11.2-34.6-17.7C596.6,1208.5,587.6,1168.2,584.3,1150.2z"/>
	<path fill="#747575" d="M1197.9,607.3c22.3,7.3,14.2,25.2,13.7,37c37.8-22.6,77.6-37.3,117.9-46c-0.1-0.6-0.3-1.2-0.5-1.8
		c-9.2-32.1,5-79.7,38.4-130.6c20.1-30.6,47.2-62.4,80.3-92.8c59.8-54.8,180.2-30.6,251.7-9.2c-28.1-35.2-80-81.1-170.5-107.3
		c-122.9-35.7-278.2,38-388.9,156.5c-34.6,37-64.9,78.4-88.4,122.2c0,0-162.5,108.6-215.2,187.4
		C909.8,664.6,1062.9,563.1,1197.9,607.3z"/>
	<path fill="#FFFFFF" d="M1525.9,418.8c-0.8,3.5,1.7,5.7,5.2,6.5c3.5,0.8,6.7-0.1,7.5-3.6c0.8-3.5-1.7-5.7-5.2-6.5
		S1526.7,415.3,1525.9,418.8z"/>
	<path fill="#5F5F60" d="M1692.9,475.3c-0.2,0.1-0.4,0.1-0.7,0.2c0,0,0.2,0.1,0.6,0.3c0.3,0.2,0.8,0.4,1.4,0.7
		c5,2.6,19.6,9.7,39.9,16.3c0.1-0.1,0.2-0.1,0.2-0.1c0.3-0.2,0.5-0.3,0.8-0.5c0,0,130.6-0.9,159.5-27.8
		C1849,459.8,1759.1,454.6,1692.9,475.3z"/>
	<path fill="#A0A0A0" d="M1201.1,1123.4c-282.6-59.1-23.6-288.5,11.2-335.1c34.5-46.1,129.2-138.1,117.2-189.9
		c-40.3,8.6-80.1,23.4-117.9,46c-0.5,28.8-77.9,115-92.8,127.2c-227,185.3-466,336.3-534.5,378.6c3.3,18,12.2,58.3,57.4,87.2
		c10.1,6.5,22,12.4,34.6,17.7c54,22.7,121.7,34.8,121.7,34.8s0.7,0.2,2,0.4c6.8,1.4,30.1,6.1,65.2,10c11.1,1.2,23.4,2.4,36.7,3.4
		c9.9,0.7,20.3,1.4,31.3,1.8c15.2,0.6,31.5,1,48.5,0.9l0,0c19.4-0.1,39.8-0.8,61.1-2.3l0,0c13.2-0.9,26.7-2.1,40.5-3.7
		c11.2-1.3,22.6-2.8,34.1-4.5c126-19.2,267.8-69.1,383.4-184C1467.3,1135.1,1386.8,1162.2,1201.1,1123.4z"/>
</g>
</svg>
