<?xml version="1.0" encoding="UTF-8"?><svg id="a" xmlns="http://www.w3.org/2000/svg" viewBox="0 0 116.41 111.66"><path d="M52.25,67.26v43.2c0,.66,.54,1.2,1.2,1.2s1.2-.54,1.2-1.2v-43.2c0-.66-.54-1.2-1.2-1.2s-1.2,.54-1.2,1.2" fill="#754c24"/><path d="M50.03,110.34l3.41-4.96,3.41,4.96c.38,.55,1.12,.68,1.67,.31,.55-.38,.68-1.12,.31-1.67l-4.4-6.4c-.22-.32-.6-.52-.99-.52s-.77,.2-.99,.52l-4.4,6.4c-.38,.55-.24,1.29,.31,1.67,.55,.38,1.29,.24,1.67-.31Z" fill="#754c24"/><path d="M66.05,67.26v43.2c0,.66,.54,1.2,1.2,1.2s1.2-.54,1.2-1.2v-43.2c0-.66-.54-1.2-1.2-1.2s-1.2,.54-1.2,1.2" fill="#754c24"/><path d="M63.83,110.34l3.41-4.96,3.41,4.96c.38,.55,1.12,.68,1.67,.31,.55-.38,.68-1.12,.31-1.67l-4.4-6.4c-.22-.32-.6-.52-.99-.52s-.77,.2-.99,.52l-4.4,6.4c-.38,.55-.24,1.29,.31,1.67,.55,.38,1.29,.24,1.67-.31Z" fill="#754c24"/><path d="M59.42,3.13c39.12-3.97,34.97,39.52,34.97,39.52,0,0,2.38,42.58-33.24,46.64-35.62,4.06-40.56-22.08-40.56-22.08,36.71-7.53-.28-60.11,38.84-64.08Z" fill="#754c24"/><path d="M97.27,42.62c.03-1.77,3.09-21.06-8.69-33.16C82.46,3.19,74.3,0,64.32,0c-1.67,0-3.42,.09-5.19,.27-22.53,2.29-24.92,20.66-24.38,36.88,.34,10.25,.25,16.67-2.56,20.86-3.74-1.91-21.3-14.27-26.12-8.21-4.82,6.06,16.49,12.47,16.49,12.47,0,0-18.33-5.02-19.53-.16-.97,3.92,10.86,7.32,15.52,8.49,.04,.11-18.49-.35-18.56,3.82-.06,3.65,12.4,6.71,26.74,4.4,14.34-2.31,21.27-10.48,21.27-10.48l.11-.12c1,1.31,2.37,2.12,3.89,2.12,2.22,0,4.13-1.74,5-4.24,.87,2.5,2.78,4.24,5,4.24s4.13-1.74,5-4.24c.87,2.5,2.78,4.24,5,4.24s4.13-1.74,5-4.24c.87,2.5,2.78,4.24,5,4.24s4.13-1.74,5-4.24c.87,2.5,2.49,4.24,4.71,4.24l.56-1.15c5.35-12.28,5.05-25.11,5-26.56Z" fill="#c69c6d"/><path d="M59.09,60.43s4-8-3-11-16.74,17.92-35.5,14.5c22,26,46,11,46.5,4s-8-7.5-8-7.5Z" fill="#42210b"/><path d="M95.43,25.38s-5.42,10.3,0,18.01l20.99-9.01-20.99-9.01Z" fill="#9e693e"/><path d="M80.54,26.26c0,1.94-.63,3.68-1.57,4.87-.95,1.2-2.14,1.82-3.39,1.83-1.25,0-2.44-.63-3.39-1.83-.94-1.19-1.58-2.92-1.57-4.87,0-.85-.69-1.54-1.54-1.54s-1.54,.69-1.54,1.54c0,2.6,.83,4.99,2.24,6.78,1.4,1.79,3.47,3,5.81,3,2.34,0,4.41-1.21,5.81-3,1.41-1.79,2.24-4.18,2.24-6.78,0-.85-.69-1.54-1.54-1.54s-1.54,.69-1.54,1.54Z" fill="#42210b"/></svg>